# xmcd
#
# Track frame offsets: 
#        150
#        12790
#        24710
#        36057
#        40945
#        49105
#        60977
#        69887
#        81587
#        92550
#        102042
#        113665
#        124562
#        137077
#        151532
#        165950
#        179335
#        189862
#        202325
#        215225
#        229375
#        242847
#        251700
#        264947
#        281025
#
# Disc length: 3888 seconds
#
# Revision: 3
# Processed by: cddbd v1.5.1PL0 Copyright (c) Steve Scherf et al.
# Submitted via: ExactAudioCopy v0.95a5
#
DISCID=520f2e19
DTITLE=Various Artist - Country Classics Vol 3
DYEAR=1996
DGENRE=Country
TTITLE0=Kenny Rogers - Reuben James
TTITLE1=Billie Jo Spears - Look What They've Done to My Song Ma
TTITLE2=Patsy Cline - Crazy Dreams
TTITLE3=Tammy Wynette - I Saw the Light
TTITLE4=Willie Nelson - Half a Man
TTITLE5=Glen Campbell - Rinestone Cowboy
TTITLE6=Burl Ives - A Little Bitty Tear
TTITLE7=Lynn Anderson - Rodeo Cowboy
TTITLE8=Guy Mitchell - Singing the Blues
TTITLE9=Ned Miller - From A Jack to a King
TTITLE10=Barbara Fairchild - You Cant Put the City in a Country Girl
TTITLE11=Frankie Laine - Hummingbird
TTITLE12=Charlie Pride - Help me Make it Trough the Night
TTITLE13=Anne Murray - Both Sides Now
TTITLE14=Loretta Lynn - Coal Miner's Daughter
TTITLE15=Billie Jo Spears - Fever
TTITLE16=Waylon Jennings - Burning Memories
TTITLE17=The Oakridge Boys - In The Shelter of his Arms
TTITLE18=Frankie Laine - Moonlight Gambler
TTITLE19=Kenny Rogers - Loser
TTITLE20=Glen Campbell - Crying
TTITLE21=Willie Nelson - The Ghost
TTITLE22=Tammy Wynette - Til I can Make It on my Own
TTITLE23=Lynn Anderson - The Devil Went Down to Georgia
TTITLE24=Patsy Cline - Honkytonk Mery Go Round
EXTD=YEAR: 1996
EXTT0=
EXTT1=
EXTT2=
EXTT3=
EXTT4=
EXTT5=
EXTT6=
EXTT7=
EXTT8=
EXTT9=
EXTT10=
EXTT11=
EXTT12=
EXTT13=
EXTT14=
EXTT15=
EXTT16=
EXTT17=
EXTT18=
EXTT19=
EXTT20=
EXTT21=
EXTT22=
EXTT23=
EXTT24=
PLAYORDER=
